PathFileType	4	(X/Y/Z)	C:\Users\u0145647\OneDrive - KU Leuven\KU Leuven\c3d2osim\CP4\T0\Data\Processed\ViconC3D_CP4_2\CP4_T0_07_gapFilled.trc
DataRate	CameraRate	NumFrames	NumMarkers	Units	OrigDataRate	OrigDataStartFrame	OrigNumFrames
100.000000	100.000000	10	47	mm	100.000000	274	728
Frame#	Time	C7			T10			CLAV			STRN			LSHO			RSHO			RBAK			LASI			RASI			LPSI			RPSI			LLAT			RLAT			LF1			LF2			LF3			LTHI			LKNE			LMEK			RF1			RF2			RF3			RTHI			RKNE			RMEK			LT1			LT2			LT3			LTIB			LANK			LMM			RT1			RT2			RT3			RTIB			RANK			RMM			LHEE			LSTL			LLCA			LTOE			LCM5			RHEE			RSTL			RLCA			RTOE			RCM5
		X1	Y1	Z1	X2	Y2	Z2	X3	Y3	Z3	X4	Y4	Z4	X5	Y5	Z5	X6	Y6	Z6	X7	Y7	Z7	X8	Y8	Z8	X9	Y9	Z9	X10	Y10	Z10	X11	Y11	Z11	X12	Y12	Z12	X13	Y13	Z13	X14	Y14	Z14	X15	Y15	Z15	X16	Y16	Z16	X17	Y17	Z17	X18	Y18	Z18	X19	Y19	Z19	X20	Y20	Z20	X21	Y21	Z21	X22	Y22	Z22	X23	Y23	Z23	X24	Y24	Z24	X25	Y25	Z25	X26	Y26	Z26	X27	Y27	Z27	X28	Y28	Z28	X29	Y29	Z29	X30	Y30	Z30	X31	Y31	Z31	X32	Y32	Z32	X33	Y33	Z33	X34	Y34	Z34	X35	Y35	Z35	X36	Y36	Z36	X37	Y37	Z37	X38	Y38	Z38	X39	Y39	Z39	X40	Y40	Z40	X41	Y41	Z41	X42	Y42	Z42	X43	Y43	Z43	X44	Y44	Z44	X45	Y45	Z45	X46	Y46	Z46	X47	Y47	Z47

274	2.73	-416.54	1431.8	-136.35	-449.92	1173.7	-164.51	-306.56	1347.1	-114.44	-278.73	1196.4	-117.49	-297.65	1393.3	-325.84	-417.88	1374.1	60.672	-482.58	1342.4	-30.916	-251.65	925.23	-218.23	-304.82	917.35	-24.567	-436.45	941.93	-197.66	-458.08	939.7	-126.44	-305.48	988.97	-280.14	-387.41	980.47	4.4334	-279.4	651.55	-268.1	-286.24	696.77	-280.12	-309.39	649.03	-284.46	-291.65	571.2	-311.71	-328.05	444.03	-234.31	NaN	NaN	NaN	-274.14	651.1	35.002	-269.21	689.58	36.173	-324.85	664.75	23.65	-245.66	596.18	75.568	-167.48	493.98	13.192	NaN	NaN	NaN	-430.36	288.82	-260.14	-380.49	315.06	-238.71	-422.62	333.5	-261.49	-394.35	205.56	-265.8	-527.58	73.308	-229.69	-518.27	81.845	-140.13	-188.06	346.52	33.97	-161.99	388.06	19.21	-213.04	392.75	29.578	-175.77	276.82	78.565	-200.67	97.849	26.029	-183.76	113.08	-58.96	-581.32	62.661	-184.71	-523.6	51.05	-144.33	-527.67	45.549	-223.16	-405	42.45	-186.42	-419.2	32.508	-234.33	-249.55	91.232	-17.44	-186.66	78.2	-54.661	-194.3	73.118	23.326	-71.5	69.238	-3.8765	-94.602	52.769	44.102
275	2.74	-406.6	1428.9	-135.62	-440.74	1170.9	-164.06	-296.69	1343.8	-114.23	-269.07	1193.1	-117.9	-288.16	1391	-325.18	-407.08	1371.1	61.234	-472.44	1339.6	-30.034	-240.36	922.88	-217.48	-293.37	916.23	-23.331	-425.53	938.21	-195.84	-446.79	936.42	-124.6	-295.73	985.99	-279.4	-376.54	978.61	5.6734	-270.31	648.68	-265.89	-277.14	693.35	-277.89	-300.09	646.24	-282.58	-282.44	568.28	-309.9	-321.04	441.32	-232.24	NaN	NaN	NaN	-261.93	648.18	35.672	-256.88	687.1	37.356	-312.75	662.6	24.353	-233.86	592.79	75.149	-155.48	491.26	11.698	NaN	NaN	NaN	-426.54	288.07	-258.78	-376.04	313.58	-237.36	-417.86	332.64	-260.12	-391.7	204.4	-264.64	-527.13	73.974	-229.48	-517.88	82.018	-139.88	-169.32	343.27	33.142	-145.47	385.88	17.985	-196.34	388.19	28.966	-153.17	274.41	77.939	-170.05	93.8	26.049	-154.8	109.84	-58.959	-580.98	63.654	-184.51	-523.45	51.292	-144.15	-527.41	46.173	-223.02	-404.82	42.352	-186.26	-419.07	32.503	-234.21	-218.97	85.357	-16.43	-156.03	74.963	-54.413	-162.13	69.833	23.562	-39.932	71.677	-4.581	-61.801	54.472	43.799
276	2.75	-396.73	1426.1	-134.81	-431.09	1167.9	-163.64	-286.7	1340.6	-114.14	-259.16	1190.1	-118.01	-278.79	1388.6	-324.52	-396.11	1367.8	61.861	-462.09	1336.5	-28.913	-228.96	920.24	-216.52	-281.76	914.94	-21.922	-414.24	934.67	-194.26	-435.44	933.31	-123	-284.97	982.96	-278.39	-365.63	976.68	6.8768	-261.07	645.59	-263.78	-267.1	690.71	-275.98	-291.07	643.17	-280.83	-274.19	564.31	-307.04	-314.14	439	-230.47	NaN	NaN	NaN	-250.58	645.21	35.868	-245.03	684.14	38.528	-301.07	660.23	24.645	-223.39	589.03	74.765	-143.97	488.71	10.028	NaN	NaN	NaN	-422.48	287.38	-257.38	-371.67	311.89	-235.7	-413	331.73	-258.6	-389.24	203.71	-263.73	-526.56	74.842	-229.34	-517.36	82.327	-139.7	-151.38	340.37	32.194	-129.69	384.03	16.61	-180.6	384.21	28.01	-131.54	272.57	77.065	-140.63	91.555	26.286	-127.05	107.37	-59.218	-580.54	64.784	-184.38	-523.24	51.613	-144.09	-527	46.996	-223.12	-404.5	42.346	-186.05	-419.04	32.514	-233.91	-189.81	80.335	-16.043	-126.71	72.414	-54.601	-131.71	67.68	23.897	-10.115	74.51	-5.4109	-30.855	56.878	43.181
277	2.76	-386.91	1423.1	-133.84	-421.35	1164.9	-163.26	-276.6	1337.6	-113.89	-248.9	1187.3	-117.98	-269.53	1386.4	-324.03	-385.03	1364.5	62.678	-451.67	1333.3	-27.687	-217.29	917.55	-215.27	-270.05	913.62	-20.237	-402.7	931.36	-192.86	-423.88	930.41	-121.62	-273.73	979.95	-277.3	-354.52	974.64	8.121	-251.67	642.28	-261.41	-257.07	687.67	-274.01	-281.54	640.5	-278.66	-265.93	560.34	-304.19	-307.24	436.33	-227.93	NaN	NaN	NaN	-239.89	642.2	35.857	-233.86	681.08	39.159	-289.93	657.74	24.548	-213.84	585.01	73.779	-132.61	486.32	8.7079	NaN	NaN	NaN	-418.19	286.76	-256.1	-367.08	310.31	-233.98	-408.1	331.13	-257.15	-386.72	202.29	-263.41	-525.93	75.939	-229.27	-516.86	82.876	-139.37	-134.43	337.88	31.107	-114.65	382.3	15.353	-165.67	380.45	26.955	-111.72	271.09	76.002	-113.56	89.298	25.563	-101.11	105.66	-60.21	-580.04	66.235	-184.36	-522.74	51.96	-144.3	-526.71	48.21	-223.12	-404.62	42.432	-185.75	-418.86	32.607	-233.78	-162.53	76.249	-16.661	-99.123	70.683	-55.681	-103.58	65.813	22.93	17.568	77.588	-6.9097	-2.3171	59.493	42.033
278	2.77	-377.02	1420.2	-132.76	-411.23	1161.9	-162.78	-266.45	1334.6	-113.49	-238.42	1184.6	-117.79	-260.26	1384.2	-323.57	-373.87	1361	63.641	-441.23	1330.1	-26.293	-205.57	914.64	-213.94	-258.23	912.17	-18.568	-390.84	928.27	-191.56	-412.05	927.68	-120.39	-262.08	976.79	-276.27	-343.26	972.6	9.3906	-242.1	639.24	-259.14	-246.92	684.73	-272.11	-271.92	637.5	-276.71	-255.66	559.18	-302.68	-300.09	434.06	-225.98	NaN	NaN	NaN	-229.56	639.1	35.413	-223.1	677.83	39.439	-279.35	655.3	24.396	-204.49	581.38	72.894	-121.23	484.02	7.1102	NaN	NaN	NaN	-413.72	286.34	-254.89	-362.29	308.96	-232.5	-402.79	330.51	-255.8	-384.26	201.59	-261.79	-525.16	77.409	-229.22	-515.92	83.544	-139.51	-118.44	335.59	30.143	-100.27	380.67	14.166	-151.09	377.01	26.207	-93.339	269.59	74.723	-88.641	87.839	23.681	-77.225	104.67	-62.03	-579.49	68.247	-184.44	-522.99	53.292	-144.06	-526.35	49.695	-223.15	-404.33	42.501	-185.51	-418.61	32.713	-233.54	-137.23	73.002	-18.074	-74.072	69.814	-57.419	-77.757	64.794	20.926	42.941	80.637	-9.1448	23.63	61.634	39.853
279	2.78	-367	1417.4	-131.58	-400.96	1159	-162.34	-256.22	1331.9	-112.91	-227.67	1181.9	-117.5	-250.87	1382.2	-323.28	-362.67	1357.5	64.758	-430.78	1326.6	-24.755	-193.58	911.96	-212.55	-246.27	910.8	-16.737	-378.72	925.28	-190.26	-400.11	925.28	-119.16	-250.26	973.74	-275.16	-331.96	970.54	10.693	-232.34	636.55	-257.11	-236.65	681.79	-270.1	-261.96	635.04	-274.49	-245.4	558.02	-301.18	-292.62	431.78	-223.61	NaN	NaN	NaN	-219.14	636.32	34.984	-212.54	675	39.821	-268.94	652.91	24.322	-194.6	578.34	72.29	-110.29	482.06	6.8103	NaN	NaN	NaN	-408.8	286.13	-253.65	-357.13	307.9	-231.03	-397.17	330.04	-254.34	-380.58	200.81	-260.86	-524.1	79.163	-229.35	-515.3	84.848	-139.37	-103.38	333.4	29.083	-86.551	379.22	13.655	-137.09	373.76	25.462	-76.039	267.78	73.146	-66.006	86.728	21.14	-55.566	104.25	-64.624	-578.72	70.645	-184.73	-522.43	54.459	-144.27	-525.76	51.419	-223.3	-403.83	42.522	-185.29	-418.34	32.797	-233.34	-114.6	70.495	-20.815	-51.343	69.257	-60.349	-54.671	63.899	18.147	65.395	83.042	-12.037	46.745	63.433	36.89
280	2.79	-356.98	1414.7	-130.33	-390.07	1156.2	-161.66	-245.73	1329.5	-112.23	-216.64	1179.8	-116.84	-241.44	1380.1	-322.86	-351.41	1354	65.94	-420.11	1323.2	-23.133	-181.38	909.28	-211.09	-234.26	909.35	-14.797	-366.38	922.76	-188.99	-387.85	923.06	-117.9	-238.19	970.8	-273.87	-320.4	968.67	12.044	-222.29	633.86	-255.23	-226.22	679.2	-268.24	-252.05	632.51	-272.9	-236.47	553.7	-298.78	-284.82	429.81	-222.01	NaN	NaN	NaN	-207.9	633.94	35.105	-201.92	672.73	40.475	-258.42	650.75	24.711	-184.36	576.21	72.372	-99.178	480.23	6.5848	NaN	NaN	NaN	-403.64	286.26	-252.69	-351.66	307.01	-229.65	-391.19	329.92	-253.22	-377.33	200.5	-260.3	-523.01	81.393	-229.66	-514.2	86.547	-139.53	-89.205	331.16	27.814	-73.636	377.34	12.631	-123.72	370.97	24.869	-60.476	265.61	71.139	-46.861	84.922	17.18	-36.196	104	-68.093	-577.68	73.722	-185.12	-521.76	56.044	-144.7	-525.06	53.664	-223.68	-403.27	42.607	-185.16	-417.92	32.951	-233.21	-94.694	68.528	-24.847	-31.355	69.135	-64.105	-34.502	62.655	14.047	85.143	84.51	-15.496	66.826	63.66	32.998
281	2.8	-346.8	1412.2	-128.87	-378.84	1153.6	-160.99	-235.09	1327.4	-111.43	-205.33	1177.8	-116.25	-231.77	1378.3	-322.44	-340.12	1350.7	67.321	-409.46	1319.9	-21.472	-168.92	906.86	-209.51	-222.03	908.02	-12.618	-353.93	920.59	-187.62	-375.68	921.26	-116.51	-225.83	967.95	-272.49	-308.74	966.94	13.438	-211.79	631.34	-254.17	-215.55	676.81	-266.51	-241.96	630.19	-271.21	-227.09	551.13	-296.74	-276.75	428	-220.59	NaN	NaN	NaN	-195.59	632.05	35.597	-190.6	671.34	41.51	-247.21	649.21	25.639	-173.4	574.33	72.886	-88.202	478.52	6.4793	NaN	NaN	NaN	-398.03	286.84	-251.98	-345.59	306.47	-228.78	-384.83	330.27	-252.34	-373.36	200.53	-260.08	-521.35	84.061	-230.28	-512.72	88.823	-140.22	-76.333	328.9	26.273	-61.554	375.44	11.917	-111.22	368.24	23.956	-46.799	263.25	68.775	-30.347	83.105	12.763	-19.297	103.82	-72.267	-576.41	77.371	-185.87	-521.2	58.736	-145.39	-524	56.283	-224.24	-402.79	42.645	-185.19	-417.28	32.975	-233.19	-77.753	66.735	-29.758	-14.08	68.853	-68.708	-18.192	60.788	9.128	101.94	84.826	-19.214	83.664	62.959	28.933
282	2.81	-336.51	1409.9	-127.4	-367.25	1151.2	-160.15	-224.29	1325.7	-110.4	-193.71	1176.2	-115.19	-221.93	1376.6	-321.94	-328.59	1347.5	68.748	-398.29	1316.7	-19.669	-156.37	904.57	-207.82	-209.83	906.71	-10.561	-341.37	918.77	-186.09	-363.14	919.73	-115.11	-213.22	965.48	-271.04	-296.9	965.33	14.978	-201.49	629.3	-252.28	-204.66	674.88	-264.98	-231.46	628.58	-269.79	-217.69	549.28	-295.56	-267.71	426.38	-219.13	NaN	NaN	NaN	-184.95	630.87	36.085	-178.98	670.21	43.241	-235.35	648.33	26.722	-162.13	573.06	73.694	-77.212	476.65	6.3176	NaN	NaN	NaN	-391.79	287.53	-251.69	-339.25	306.13	-227.93	-377.76	330.73	-251.83	-368.83	201.11	-260.31	-519.35	87.178	-231.08	-511.74	92.066	-140.9	-64.842	326.58	24.45	-50.329	373.5	10.967	-99.844	365.81	22.357	-35.336	260.55	66.236	-16.609	81.567	7.8767	-5.2174	103.19	-76.534	-574.8	81.768	-186.88	-520.01	61.685	-146.38	-522.5	59.32	-225.07	-401.98	42.689	-185.22	-416.62	33.056	-233.27	-63.702	65.112	-35.222	0.28169	68.337	-73.512	-4.2323	59.435	4.2437	115.78	83.953	-22.849	97.212	61.278	24.766
283	2.82	-326.12	1407.9	-125.76	-355.23	1149.1	-159.12	-213.29	1324.4	-109.27	-181.89	1174.9	-114.01	-211.91	1375.1	-321.22	-316.82	1344.7	70.333	-387.23	1313.9	-17.77	-143.64	902.62	-206.06	-197.29	905.62	-8.3417	-328.55	917.41	-184.43	-350.37	918.45	-113.46	-200.67	963.46	-269.59	-284.77	963.82	16.443	-190.4	627.64	-251.05	-193.4	673.11	-263.48	-220.46	627.07	-268.69	-206.67	547.88	-295.09	-258.51	424.94	-218.45	NaN	NaN	NaN	-174.3	629.69	36.573	-166.53	669.3	45.173	-222.71	647.85	28.027	-150.03	571.81	74.19	-66.553	474.73	6.0631	NaN	NaN	NaN	-385.03	288.54	-251.54	-332.09	305.79	-227.77	-370.12	331.54	-251.6	-363.94	201.71	-260.58	-517.04	90.667	-232.2	-509.54	95.432	-142.14	-54.63	324.23	22.237	-40.004	371.48	9.8824	-89.749	363.43	20.331	-25.927	257.54	63.827	-5.9228	79.063	3.3518	6.2757	102.25	-80.741	-572.73	86.661	-188.29	-518.47	65.142	-147.65	-520.89	62.967	-226.3	-401.02	42.859	-185.48	-415.7	33.12	-233.57	-52.567	63.36	-40.597	11.723	67.128	-78.153	6.311	56.82	-1.2005	126.82	81.938	-26.478	107.94	58.454	20.622
